<svg width="375" height="500" viewBox="0 0 375 500" fill="none" xmlns="http://www.w3.org/2000/svg">
<path d="M186.722 136.428C173.23 136.428 160.042 132.427 148.824 124.932C137.607 117.436 128.863 106.783 123.7 94.3182C118.538 81.8538 117.187 68.1382 119.819 54.906C122.451 41.6738 128.948 29.5193 138.487 19.9794C148.027 10.4395 160.182 3.94278 173.414 1.31074C186.646 -1.32131 200.362 0.0295698 212.826 5.19251C225.291 10.3555 235.944 19.0986 243.44 30.3163C250.935 41.534 254.936 54.7225 254.936 68.2139C254.92 86.3006 247.728 103.642 234.939 116.431C222.15 129.22 204.809 136.412 186.722 136.428V136.428Z" fill="#FDD835"/>
<path d="M68.2139 255.522C105.887 255.522 136.428 224.982 136.428 187.308C136.428 149.635 105.887 119.094 68.2139 119.094C30.5404 119.094 0 149.635 0 187.308C0 224.982 30.5404 255.522 68.2139 255.522Z" fill="#FDD835"/>
<path d="M186.722 380.259C224.395 380.259 254.936 349.718 254.936 312.045C254.936 274.371 224.395 243.831 186.722 243.831C149.048 243.831 118.508 274.371 118.508 312.045C118.508 349.718 149.048 380.259 186.722 380.259Z" fill="#3D53FF"/>
<path d="M306.463 500C344.137 500 374.677 469.46 374.677 431.786C374.677 394.113 344.137 363.572 306.463 363.572C268.79 363.572 238.25 394.113 238.25 431.786C238.25 469.46 268.79 500 306.463 500Z" fill="#3D53FF"/>
</svg>
